<?xml version="1.0" encoding="UTF-8"?>
<svg width="13px" height="13px" viewBox="0 0 13 13" version="1.1" xmlns="http://www.w3.org/2000/svg" xmlns:xlink="http://www.w3.org/1999/xlink">
    <!-- Generator: Sketch 59 (86127) - https://sketch.com -->
    <title>禁止</title>
    <desc>Created with Sketch.</desc>
    <g id="页面-1" stroke="none" stroke-width="1" fill="none" fill-rule="evenodd">
        <g id="切图" transform="translate(-540.000000, -166.000000)" fill="#2896FF" fill-rule="nonzero">
            <path d="M546.5,166.25 C549.95178,166.25 552.75,169.04822 552.75,172.5 C552.75,175.95178 549.95178,178.75 546.5,178.75 C543.04822,178.75 540.25,175.95178 540.25,172.5 C540.25,169.04822 543.04822,166.25 546.5,166.25 Z M541.75,172.5 C541.75,175.123353 543.876647,177.25 546.5,177.25 C547.49734,177.25 548.422888,176.942625 549.187082,176.417439 L542.582561,169.812918 C542.057375,170.577112 541.75,171.50266 541.75,172.5 Z M546.5,167.75 C545.415431,167.75 544.41576,168.113494 543.616167,168.725302 L550.275455,175.382845 C550.886806,174.583416 551.25,173.584122 551.25,172.5 C551.25,169.876647 549.123353,167.75 546.5,167.75 Z" id="形状结合"></path>
        </g>
    </g>
</svg>