<?xml version="1.0" encoding="utf-8"?>
<!-- Generator: Adobe Illustrator 24.0.0, SVG Export Plug-In . SVG Version: 6.00 Build 0)  -->
<svg version="1.1" id="图层_1" xmlns="http://www.w3.org/2000/svg" xmlns:xlink="http://www.w3.org/1999/xlink" x="0px" y="0px"
	 viewBox="0 0 30 30" style="enable-background:new 0 0 30 30;" xml:space="preserve">
<style type="text/css">
	.st0{fill:#FFFFFF;}
</style>
<g>
	<path class="st0" d="M29.91,15.56c0-0.3-0.13-0.55-0.34-0.74l-6.35-6.35c-0.39-0.39-1.02-0.39-1.41,0s-0.39,1.02,0,1.41l4.68,4.68
		H13.83c-0.55,0-1,0.45-1,1c0,0.55,0.45,1,1,1h12.68l-4.71,4.71c-0.39,0.39-0.39,1.02,0,1.41c0.2,0.2,0.45,0.29,0.71,0.29
		s0.51-0.1,0.71-0.29l6.4-6.4c0.19-0.19,0.29-0.44,0.29-0.71C29.91,15.57,29.91,15.57,29.91,15.56
		C29.91,15.56,29.91,15.56,29.91,15.56z"/>
	<path class="st0" d="M20,23.65c-0.55,0-1,0.45-1,1v1.39c0,0.28-0.22,0.5-0.5,0.5h-15c-0.28,0-0.5-0.22-0.5-0.5V3.93
		c0-0.28,0.22-0.5,0.5-0.5h15c0.28,0,0.5,0.22,0.5,0.5v1.39c0,0.55,0.45,1,1,1s1-0.45,1-1V3.93c0-1.38-1.12-2.5-2.5-2.5h-15
		C2.12,1.43,1,2.56,1,3.93v22.11c0,1.38,1.12,2.5,2.5,2.5h15c1.38,0,2.5-1.12,2.5-2.5v-1.39C21,24.1,20.55,23.65,20,23.65z"/>
</g>
</svg>
