<?xml version="1.0" standalone="no"?><!DOCTYPE svg PUBLIC "-//W3C//DTD SVG 1.1//EN" "http://www.w3.org/Graphics/SVG/1.1/DTD/svg11.dtd"><svg t="1575529479276" class="icon" viewBox="0 0 1024 1024" version="1.1" xmlns="http://www.w3.org/2000/svg" p-id="4446" width="43" height="43" xmlns:xlink="http://www.w3.org/1999/xlink"><defs><style type="text/css"></style></defs><path d="M660.736 295.497143c-10.276571 0-20.333714 0.987429-30.098286 2.706286A213.650286 213.650286 0 0 0 464.896 219.428571C371.492571 219.428571 292.022857 279.552 262.582857 363.483429a208.822857 208.822857 0 0 0-18.797714-0.914286C129.316571 362.569143 36.571429 456.045714 36.571429 571.282286c0 108.726857 82.578286 197.997714 188.013714 207.725714v0.950857H554.971429c-20.626286-21.467429-32.694857-41.216-46.701715-67.254857H243.748571c-77.421714 0-140.434286-63.451429-140.434285-141.421714 0-78.006857 63.012571-141.458286 140.434285-141.458286a139.629714 139.629714 0 0 1 74.057143 21.321143 149.065143 149.065143 0 0 1 9.764572-70.729143 148.114286 148.114286 0 0 1 137.325714-93.732571c38.180571 0 73.033143 14.628571 99.291429 38.656 16.566857 15.140571 29.696 34.011429 38.107428 55.259428a104.228571 104.228571 0 0 1 64.804572-17.627428c35.986286 2.194286 67.181714 22.601143 84.48 52.224a106.057143 106.057143 0 0 1 13.897142 65.828571 127.853714 127.853714 0 0 1 66.706286 3.657143 129.682286 129.682286 0 0 1 88.502857 123.062857c0 71.460571-57.709714 129.572571-128.658285 129.572571-59.099429 0-108.982857-40.374857-123.977143-95.122285a127.890286 127.890286 0 0 1-1.974857-8.192h61.184l-96.475429-140.507429-96.438857 140.507429h64.109714C611.218286 730.258286 692.955429 804.571429 792.027429 804.571429 899.913143 804.571429 987.428571 716.434286 987.428571 607.744c0-97.755429-70.765714-178.834286-163.510857-194.157714-22.930286-68.608-87.296-118.089143-163.181714-118.089143z" fill="#ffffff" p-id="4447"></path></svg>