<?xml version="1.0" encoding="UTF-8"?>
<svg width="100px" height="100px" viewBox="0 0 100 100" version="1.1" xmlns="http://www.w3.org/2000/svg" xmlns:xlink="http://www.w3.org/1999/xlink">
    <!-- Generator: Sketch 59 (86127) - https://sketch.com -->
    <title>通知-空</title>
    <desc>Created with Sketch.</desc>
    <g id="页面-1" stroke="none" stroke-width="1" fill="none" fill-rule="evenodd">
        <g id="切图" transform="translate(-781.000000, -87.000000)">
            <g id="通知-空" transform="translate(783.000000, 95.000000)">
                <path d="M36.0478548,76.3679222 C36.586175,79.4399474 34.5359902,82.3679342 31.4651178,82.9127922 C28.4026823,83.4561533 25.4796066,81.41404 24.9362456,78.3516045 C24.9355475,78.3476702 24.9348537,78.3437352 24.934164,78.3397994 L22.311,63.3716288 L13.8127218,63.372252 C9.94672858,63.372252 6.81272183,60.2382453 6.81272183,56.372252 L6.81145492,48.2078907 C2.27048497,45.6577422 0,42.1920096 0,37.8106927 C0,33.4292821 2.27058218,29.6921675 6.81174654,26.5993489 L6.81272183,19.2721048 C6.81272183,15.4061115 9.94672858,12.2721048 13.8127218,12.2721048 L43.4894182,12.2721048 L43.489,12.3406288 L87.1472017,0.359048201 C90.8753135,-0.664224051 94.7270713,1.52848165 95.7503436,5.25659347 C95.9160325,5.8602518 96,6.48340759 96,7.10939178 L96,67.5211076 C96,71.3871009 92.8659932,74.5211076 89,74.5211076 C88.4375861,74.5211076 87.8772218,74.4533279 87.3310274,74.3192346 L42.739,63.3716288 L33.77,63.3716288 L36.0478548,76.3679222 Z" id="形状结合" fill="#E5E9EC"></path>
                <rect id="矩形" fill="#C8D1D8" x="34" y="12" width="8" height="51"></rect>
            </g>
        </g>
    </g>
</svg>